<svg id="visual" viewBox="0 0 900 600" width="900" height="600" xmlns="http://www.w3.org/2000/svg" xmlns:xlink="http://www.w3.org/1999/xlink" version="1.1"><path d="M0 477L56 477L56 458L113 458L113 463L169 463L169 468L225 468L225 465L281 465L281 486L338 486L338 462L394 462L394 479L450 479L450 458L506 458L506 486L563 486L563 466L619 466L619 485L675 485L675 486L731 486L731 468L788 468L788 470L844 470L844 458L900 458L900 472L900 601L900 601L844 601L844 601L788 601L788 601L731 601L731 601L675 601L675 601L619 601L619 601L563 601L563 601L506 601L506 601L450 601L450 601L394 601L394 601L338 601L338 601L281 601L281 601L225 601L225 601L169 601L169 601L113 601L113 601L56 601L56 601L0 601Z" fill="#9900ff"></path><path d="M0 500L56 500L56 491L113 491L113 503L169 503L169 515L225 515L225 507L281 507L281 500L338 500L338 497L394 497L394 508L450 508L450 512L506 512L506 512L563 512L563 503L619 503L619 510L675 510L675 501L731 501L731 513L788 513L788 514L844 514L844 495L900 495L900 489L900 601L900 601L844 601L844 601L788 601L788 601L731 601L731 601L675 601L675 601L619 601L619 601L563 601L563 601L506 601L506 601L450 601L450 601L394 601L394 601L338 601L338 601L281 601L281 601L225 601L225 601L169 601L169 601L113 601L113 601L56 601L56 601L0 601Z" fill="#8200d9"></path><path d="M0 524L56 524L56 531L113 531L113 535L169 535L169 521L225 521L225 530L281 530L281 523L338 523L338 535L394 535L394 527L450 527L450 522L506 522L506 541L563 541L563 531L619 531L619 524L675 524L675 537L731 537L731 539L788 539L788 535L844 535L844 526L900 526L900 534L900 601L900 601L844 601L844 601L788 601L788 601L731 601L731 601L675 601L675 601L619 601L619 601L563 601L563 601L506 601L506 601L450 601L450 601L394 601L394 601L338 601L338 601L281 601L281 601L225 601L225 601L169 601L169 601L113 601L113 601L56 601L56 601L0 601Z" fill="#6c00b4"></path><path d="M0 561L56 561L56 562L113 562L113 571L169 571L169 566L225 566L225 567L281 567L281 561L338 561L338 563L394 563L394 567L450 567L450 556L506 556L506 561L563 561L563 568L619 568L619 553L675 553L675 562L731 562L731 559L788 559L788 572L844 572L844 573L900 573L900 569L900 601L900 601L844 601L844 601L788 601L788 601L731 601L731 601L675 601L675 601L619 601L619 601L563 601L563 601L506 601L506 601L450 601L450 601L394 601L394 601L338 601L338 601L281 601L281 601L225 601L225 601L169 601L169 601L113 601L113 601L56 601L56 601L0 601Z" fill="#560090"></path></svg>