<svg id="visual" viewBox="0 0 800 400" width="800" height="400" xmlns="http://www.w3.org/2000/svg" xmlns:xlink="http://www.w3.org/1999/xlink" version="1.1"><rect x="0" y="0" width="800" height="400" fill="#ffffff"></rect><defs><linearGradient id="grad1_0" x1="50%" y1="0%" x2="100%" y2="100%"><stop offset="10%" stop-color="#ffffff" stop-opacity="1"></stop><stop offset="90%" stop-color="#ffffff" stop-opacity="1"></stop></linearGradient></defs><defs><linearGradient id="grad2_0" x1="0%" y1="0%" x2="50%" y2="100%"><stop offset="10%" stop-color="#ffffff" stop-opacity="1"></stop><stop offset="90%" stop-color="#ffffff" stop-opacity="1"></stop></linearGradient></defs><g transform="translate(800, 0)"><path d="M0 140C-20 139.7 -40.1 139.4 -53.6 129.3C-67.1 119.2 -74.1 99.3 -85.6 85.6C-97.1 71.8 -113.1 64.1 -122.9 50.9C-132.7 37.7 -136.4 18.8 -140 0L0 0Z" fill="#FE7575"></path></g><g transform="translate(0, 400)"><path d="M0 -140C15.8 -131.9 31.6 -123.9 49 -118.3C66.3 -112.7 85.2 -109.5 99 -99C112.8 -88.5 121.5 -70.5 127.5 -52.8C133.5 -35.1 136.7 -17.5 140 0L0 0Z" fill="#FE7575"></path></g></svg>