<svg id="visual" viewBox="0 0 800 100" width="800" height="100" xmlns="http://www.w3.org/2000/svg" xmlns:xlink="http://www.w3.org/1999/xlink" version="1.1"><path d="M0 18L19 16.7C38 15.3 76 12.7 114.2 12.5C152.3 12.3 190.7 14.7 228.8 16.7C267 18.7 305 20.3 343 20.7C381 21 419 20 457 18.2C495 16.3 533 13.7 571.2 13.2C609.3 12.7 647.7 14.3 685.8 15C724 15.7 762 15.3 781 15.2L800 15L800 0L781 0C762 0 724 0 685.8 0C647.7 0 609.3 0 571.2 0C533 0 495 0 457 0C419 0 381 0 343 0C305 0 267 0 228.8 0C190.7 0 152.3 0 114.2 0C76 0 38 0 19 0L0 0Z" fill="#ffffff"></path><path d="M0 25L19 24C38 23 76 21 114.2 22C152.3 23 190.7 27 228.8 28.5C267 30 305 29 343 29.2C381 29.3 419 30.7 457 29.8C495 29 533 26 571.2 24.7C609.3 23.3 647.7 23.7 685.8 23.3C724 23 762 22 781 21.5L800 21L800 13L781 13.2C762 13.3 724 13.7 685.8 13C647.7 12.3 609.3 10.7 571.2 11.2C533 11.7 495 14.3 457 16.2C419 18 381 19 343 18.7C305 18.3 267 16.7 228.8 14.7C190.7 12.7 152.3 10.3 114.2 10.5C76 10.7 38 13.3 19 14.7L0 16Z" fill="#e0deff"></path><path d="M0 33L19 32C38 31 76 29 114.2 30.2C152.3 31.3 190.7 35.7 228.8 37C267 38.3 305 36.7 343 37.2C381 37.7 419 40.3 457 39.3C495 38.3 533 33.7 571.2 32.3C609.3 31 647.7 33 685.8 33C724 33 762 31 781 30L800 29L800 19L781 19.5C762 20 724 21 685.8 21.3C647.7 21.7 609.3 21.3 571.2 22.7C533 24 495 27 457 27.8C419 28.7 381 27.3 343 27.2C305 27 267 28 228.8 26.5C190.7 25 152.3 21 114.2 20C76 19 38 21 19 22L0 23Z" fill="#bebeff"></path><path d="M0 44L19 44C38 44 76 44 114.2 45.5C152.3 47 190.7 50 228.8 50.2C267 50.3 305 47.7 343 47.7C381 47.7 419 50.3 457 50.3C495 50.3 533 47.7 571.2 46C609.3 44.3 647.7 43.7 685.8 43.7C724 43.7 762 44.3 781 44.7L800 45L800 27L781 28C762 29 724 31 685.8 31C647.7 31 609.3 29 571.2 30.3C533 31.7 495 36.3 457 37.3C419 38.3 381 35.7 343 35.2C305 34.7 267 36.3 228.8 35C190.7 33.7 152.3 29.3 114.2 28.2C76 27 38 29 19 30L0 31Z" fill="#99a0ff"></path><path d="M0 61L19 61C38 61 76 61 114.2 64.7C152.3 68.3 190.7 75.7 228.8 79.2C267 82.7 305 82.3 343 82.2C381 82 419 82 457 78.8C495 75.7 533 69.3 571.2 68C609.3 66.7 647.7 70.3 685.8 70.2C724 70 762 66 781 64L800 62L800 43L781 42.7C762 42.3 724 41.7 685.8 41.7C647.7 41.7 609.3 42.3 571.2 44C533 45.7 495 48.3 457 48.3C419 48.3 381 45.7 343 45.7C305 45.7 267 48.3 228.8 48.2C190.7 48 152.3 45 114.2 43.5C76 42 38 42 19 42L0 42Z" fill="#6a82ff"></path><path d="M0 101L19 101C38 101 76 101 114.2 101C152.3 101 190.7 101 228.8 101C267 101 305 101 343 101C381 101 419 101 457 101C495 101 533 101 571.2 101C609.3 101 647.7 101 685.8 101C724 101 762 101 781 101L800 101L800 60L781 62C762 64 724 68 685.8 68.2C647.7 68.3 609.3 64.7 571.2 66C533 67.3 495 73.7 457 76.8C419 80 381 80 343 80.2C305 80.3 267 80.7 228.8 77.2C190.7 73.7 152.3 66.3 114.2 62.7C76 59 38 59 19 59L0 59Z" fill="#0066ff"></path></svg>