<svg id="visual" viewBox="0 0 480 480" width="480" height="480" xmlns="http://www.w3.org/2000/svg" xmlns:xlink="http://www.w3.org/1999/xlink" version="1.1"><path d="M0 334L60 325L120 315L180 325L240 284L300 309L360 286L420 297L480 294L480 481L420 481L360 481L300 481L240 481L180 481L120 481L60 481L0 481Z" fill="#f5730a"></path><path d="M0 345L60 343L120 363L180 324L240 353L300 316L360 361L420 323L480 328L480 481L420 481L360 481L300 481L240 481L180 481L120 481L60 481L0 481Z" fill="#da5b09"></path><path d="M0 384L60 363L120 364L180 360L240 356L300 379L360 346L420 397L480 363L480 481L420 481L360 481L300 481L240 481L180 481L120 481L60 481L0 481Z" fill="#be4407"></path><path d="M0 400L60 427L120 412L180 397L240 412L300 385L360 428L420 385L480 390L480 481L420 481L360 481L300 481L240 481L180 481L120 481L60 481L0 481Z" fill="#a32d04"></path><path d="M0 428L60 450L120 447L180 442L240 423L300 452L360 457L420 456L480 425L480 481L420 481L360 481L300 481L240 481L180 481L120 481L60 481L0 481Z" fill="#871400"></path></svg>