<svg id="visual" viewBox="0 0 480 480" width="480" height="480" xmlns="http://www.w3.org/2000/svg" xmlns:xlink="http://www.w3.org/1999/xlink" version="1.1"><path d="M0 325L11.5 326.7C23 328.3 46 331.7 68.8 328.2C91.7 324.7 114.3 314.3 137.2 308.3C160 302.3 183 300.7 205.8 309.8C228.7 319 251.3 339 274.2 344C297 349 320 339 342.8 326C365.7 313 388.3 297 411.2 298.5C434 300 457 319 468.5 328.5L480 338L480 481L468.5 481C457 481 434 481 411.2 481C388.3 481 365.7 481 342.8 481C320 481 297 481 274.2 481C251.3 481 228.7 481 205.8 481C183 481 160 481 137.2 481C114.3 481 91.7 481 68.8 481C46 481 23 481 11.5 481L0 481Z" fill="#fa7268"></path><path d="M0 365L11.5 359.2C23 353.3 46 341.7 68.8 341.7C91.7 341.7 114.3 353.3 137.2 359.3C160 365.3 183 365.7 205.8 361C228.7 356.3 251.3 346.7 274.2 338.2C297 329.7 320 322.3 342.8 327C365.7 331.7 388.3 348.3 411.2 350.8C434 353.3 457 341.7 468.5 335.8L480 330L480 481L468.5 481C457 481 434 481 411.2 481C388.3 481 365.7 481 342.8 481C320 481 297 481 274.2 481C251.3 481 228.7 481 205.8 481C183 481 160 481 137.2 481C114.3 481 91.7 481 68.8 481C46 481 23 481 11.5 481L0 481Z" fill="#ef5f67"></path><path d="M0 400L11.5 392.5C23 385 46 370 68.8 364.7C91.7 359.3 114.3 363.7 137.2 369.5C160 375.3 183 382.7 205.8 387.3C228.7 392 251.3 394 274.2 396.8C297 399.7 320 403.3 342.8 404.2C365.7 405 388.3 403 411.2 401C434 399 457 397 468.5 396L480 395L480 481L468.5 481C457 481 434 481 411.2 481C388.3 481 365.7 481 342.8 481C320 481 297 481 274.2 481C251.3 481 228.7 481 205.8 481C183 481 160 481 137.2 481C114.3 481 91.7 481 68.8 481C46 481 23 481 11.5 481L0 481Z" fill="#e34c67"></path><path d="M0 410L11.5 410.3C23 410.7 46 411.3 68.8 409.2C91.7 407 114.3 402 137.2 402.8C160 403.7 183 410.3 205.8 414.3C228.7 418.3 251.3 419.7 274.2 419.7C297 419.7 320 418.3 342.8 416.8C365.7 415.3 388.3 413.7 411.2 415.2C434 416.7 457 421.3 468.5 423.7L480 426L480 481L468.5 481C457 481 434 481 411.2 481C388.3 481 365.7 481 342.8 481C320 481 297 481 274.2 481C251.3 481 228.7 481 205.8 481C183 481 160 481 137.2 481C114.3 481 91.7 481 68.8 481C46 481 23 481 11.5 481L0 481Z" fill="#d53867"></path><path d="M0 438L11.5 436.7C23 435.3 46 432.7 68.8 431.5C91.7 430.3 114.3 430.7 137.2 432.5C160 434.3 183 437.7 205.8 440.2C228.7 442.7 251.3 444.3 274.2 446C297 447.7 320 449.3 342.8 447.7C365.7 446 388.3 441 411.2 436.7C434 432.3 457 428.7 468.5 426.8L480 425L480 481L468.5 481C457 481 434 481 411.2 481C388.3 481 365.7 481 342.8 481C320 481 297 481 274.2 481C251.3 481 228.7 481 205.8 481C183 481 160 481 137.2 481C114.3 481 91.7 481 68.8 481C46 481 23 481 11.5 481L0 481Z" fill="#c62368"></path></svg>